<svg width="610" height="1123" viewBox="0 0 610 1123" fill="none" xmlns="http://www.w3.org/2000/svg">
<path d="M613.5 1122.5V1005V862.5V586V26L573.5 41L541 56L520 68L495.431 84.0295L478 98.5L414.322 148.705C414.322 148.705 346.275 170.147 320.332 217.052C286.326 278.535 286.308 402.662 182.961 368.489C185.692 394.61 178.708 416.064 178.708 416.064C187.035 417.042 153.195 430.269 159.999 443C162.551 449.701 165.208 442.5 178.708 471.5C211.208 504 206.221 501.515 223.999 529.5C250.006 563.554 283.096 565.623 320.332 614.5C357.568 663.377 320.332 712.5 337.999 749C352.763 779.5 390.999 803 399.499 807.5C432.999 825.235 458.79 853.854 461.975 862.5C467.5 877.5 476 909.523 476 951C476 1035.87 509.5 1089 535 1099L574 1113L613.5 1122.5Z" fill="url(#paint0_linear_18_986)"/>
<path d="M607 1033V932.913V811.532V576.009V99L575.839 111.777L550.521 124.554L534.161 134.776L515.022 148.43L493 166L460.5 199C460.5 199 389 221.5 378.614 261.739C363.945 318.566 316.511 440.609 236 411.5C238.128 433.75 231.5 423 231.5 423C237.987 423.833 248.409 443.357 253.71 454.201C255.698 459.909 257.768 453.775 268.284 478.477C293.603 506.161 289.718 504.044 303.568 527.882C323.828 556.889 349.605 558.651 378.614 600.285C407.622 641.919 378.614 683.762 392.377 714.852C403.878 740.832 433.666 760.85 440.288 764.683C466.385 779.789 467 772.5 488.958 811.532C495.569 823.282 507.5 852.17 507.5 887.5C507.5 959.79 528.5 995 545.847 1012.98L576.229 1024.91L607 1033Z" fill="url(#paint1_linear_18_986)"/>
<path d="M486.699 553.661C481.7 553.661 476.905 551.484 473.37 547.609C469.835 543.735 467.849 538.48 467.849 533C467.849 538.48 465.863 543.735 462.329 547.609C458.794 551.484 453.999 553.661 449 553.661C451.475 553.661 453.926 554.195 456.213 555.233C458.5 556.272 460.578 557.793 462.329 559.712C464.079 561.63 465.467 563.908 466.415 566.415C467.362 568.921 467.849 571.608 467.849 574.321C467.849 571.608 468.337 568.921 469.284 566.415C470.231 563.908 471.62 561.63 473.37 559.712C475.121 557.793 477.198 556.272 479.485 555.233C481.772 554.195 484.223 553.661 486.699 553.661Z" fill="#FDD835"/>
<path d="M394.099 300.918C393.326 300.918 392.56 300.751 391.845 300.426C391.13 300.102 390.481 299.626 389.934 299.027C389.387 298.427 388.953 297.716 388.657 296.932C388.361 296.149 388.209 295.309 388.209 294.461C388.209 296.174 387.588 297.816 386.484 299.027C385.379 300.238 383.881 300.918 382.318 300.918C383.881 300.918 385.379 301.598 386.484 302.809C387.588 304.02 388.209 305.662 388.209 307.374C388.209 306.526 388.361 305.687 388.657 304.904C388.953 304.12 389.387 303.408 389.934 302.809C390.481 302.209 391.13 301.734 391.845 301.409C392.56 301.085 393.326 300.918 394.099 300.918Z" fill="white"/>
<path d="M557.252 639.373C555.689 639.373 554.191 638.693 553.086 637.482C551.982 636.271 551.361 634.629 551.361 632.917C551.361 634.629 550.741 636.271 549.636 637.482C548.531 638.693 547.033 639.373 545.471 639.373C547.033 639.373 548.531 640.053 549.636 641.264C550.741 642.475 551.361 644.117 551.361 645.829C551.361 644.117 551.982 642.475 553.086 641.264C554.191 640.053 555.689 639.373 557.252 639.373Z" fill="white"/>
<path d="M153.575 510.159C152.013 510.159 150.514 509.478 149.41 508.268C148.305 507.057 147.684 505.414 147.684 503.702C147.684 505.414 147.064 507.057 145.959 508.268C144.854 509.478 143.356 510.159 141.794 510.159C142.567 510.159 143.333 510.326 144.048 510.65C144.763 510.975 145.412 511.45 145.959 512.05C146.506 512.649 146.94 513.361 147.236 514.144C147.532 514.928 147.684 515.767 147.684 516.615C147.684 515.767 147.837 514.928 148.133 514.144C148.429 513.361 148.863 512.649 149.41 512.05C149.957 511.45 150.606 510.975 151.321 510.65C152.035 510.326 152.801 510.159 153.575 510.159Z" fill="white"/>
<path d="M575.845 115.356C571.887 115.356 568.092 113.633 565.293 110.566C562.495 107.498 560.922 103.338 560.922 99C560.922 103.338 559.35 107.498 556.552 110.566C553.753 113.633 549.958 115.356 546 115.356C549.958 115.356 553.753 117.08 556.552 120.147C559.35 123.214 560.922 127.375 560.922 131.713C560.922 127.375 562.495 123.214 565.293 120.147C568.092 117.08 571.887 115.356 575.845 115.356Z" fill="white"/>
<path d="M308.019 467.358C304.897 467.358 301.903 466 299.694 463.583C297.485 461.165 296.242 457.885 296.238 454.463C296.234 457.885 294.99 461.165 292.782 463.583C290.573 466 287.579 467.358 284.457 467.358C287.582 467.358 290.578 468.719 292.787 471.14C294.997 473.562 296.238 476.846 296.238 480.271C296.238 476.846 297.479 473.562 299.688 471.14C301.898 468.719 304.894 467.358 308.019 467.358Z" fill="#59BAF7"/>
<path d="M374.845 602.356C370.887 602.356 367.092 600.633 364.293 597.566C361.495 594.498 359.922 590.338 359.922 586C359.922 590.338 358.35 594.498 355.552 597.566C352.753 600.633 348.958 602.356 345 602.356C346.96 602.356 348.9 602.779 350.711 603.601C352.521 604.423 354.166 605.628 355.552 607.147C356.937 608.666 358.037 610.469 358.787 612.453C359.536 614.438 359.922 616.565 359.922 618.713C359.922 616.565 360.308 614.438 361.058 612.453C361.808 610.469 362.907 608.666 364.293 607.147C365.679 605.628 367.324 604.423 369.134 603.601C370.945 602.779 372.885 602.356 374.845 602.356Z" fill="white"/>
<path d="M230.28 373.983C230.111 373.587 229.822 373.268 229.462 373.08C229.102 372.892 228.693 372.847 228.306 372.953C227.919 373.059 227.578 373.309 227.341 373.661C227.104 374.012 226.986 374.443 227.007 374.88C227.021 375.157 227.09 375.428 227.21 375.672C227.33 375.917 227.498 376.129 227.702 376.294C227.906 376.459 228.14 376.573 228.389 376.627C228.637 376.681 228.894 376.674 229.14 376.607C229.385 376.539 229.615 376.413 229.811 376.237C230.007 376.061 230.165 375.84 230.274 375.59C230.383 375.339 230.44 375.065 230.441 374.787C230.442 374.509 230.387 374.235 230.28 373.983Z" fill="white"/>
<path d="M406.541 193.138C431.215 193.617 452.153 171.675 453.307 144.129C454.461 116.583 435.395 93.8647 410.721 93.3858C386.048 92.9068 365.11 114.849 363.956 142.395C362.802 169.94 381.868 192.659 406.541 193.138Z" fill="#FFEE58"/>
<path d="M392.217 138.367C392.217 138.367 418.169 139.92 445.837 114.407C442.96 109.67 439.353 105.55 435.177 102.23C428.541 113.188 416.018 126.41 392.217 138.367Z" fill="#FDD835"/>
<path d="M451.789 154.936C427.565 174.393 401.68 182.844 385.161 186.463C386.437 187.303 387.753 188.068 389.103 188.757C399.171 187.502 416.523 183.787 430.278 172.913C430.278 172.913 423.309 185.965 403.043 192.892C404.193 193.043 405.357 193.118 406.536 193.115C409.868 193.184 413.206 192.838 416.49 192.083C420.871 190.016 425.053 187.434 428.964 184.382C428.054 185.941 427.005 187.395 425.832 188.721C432.12 185.588 437.727 180.917 442.225 175.062C446.724 169.207 449.994 162.324 451.789 154.936Z" fill="#FBC02D"/>
<path d="M410.714 93.3846C401.415 93.2089 392.213 96.2758 384.391 102.158C376.568 108.04 370.515 116.445 367.074 126.201C383.483 119.019 405.627 108.253 423.429 95.7582C419.335 94.2792 415.051 93.4796 410.714 93.3846Z" fill="#FFF176"/>
<path d="M420.707 141.833C408.252 152.498 384.575 159.546 367.257 163.535C367.984 165.475 368.822 167.358 369.768 169.172C406.208 159.199 420.707 141.833 420.707 141.833Z" fill="#FDD835"/>
<path d="M452.474 132.012C438.282 145.98 409.139 170.127 373.099 174.704C376.417 179.429 380.499 183.414 385.143 186.462C401.665 182.827 427.533 174.39 451.771 154.934C452.212 153.105 452.56 151.252 452.814 149.385C453.609 143.586 453.494 137.707 452.474 132.012Z" fill="#FDD835"/>
<path d="M430.279 172.932C416.526 183.79 399.159 187.504 389.103 188.776C393.491 191.01 398.2 192.412 403.042 192.926C423.298 185.966 430.279 172.932 430.279 172.932Z" fill="#FDD835"/>
<path d="M416.498 192.083C419.703 191.345 422.835 190.217 425.839 188.721C427.012 187.396 428.062 185.942 428.972 184.383C425.061 187.434 420.879 190.016 416.498 192.083Z" fill="#F4C18A"/>
<path d="M436.176 128.409C440.977 127.313 445.601 125.325 449.853 122.53C449.334 121.173 448.758 119.851 448.126 118.564C444.45 122.293 440.445 125.592 436.176 128.409Z" fill="#FDD835"/>
<path d="M481.844 114.168C480.317 109.009 466.198 109.555 445.956 114.584C446.879 116.112 447.723 117.698 448.484 119.337C457.139 118.071 462.719 118.664 463.586 121.423C464.453 124.183 460.273 128.637 452.772 133.81C443.433 140.261 428.804 147.788 411.95 154.484C395.095 161.179 379.57 165.627 368.768 167.196C360.113 168.462 354.532 167.869 353.666 165.11C352.799 162.35 356.979 157.896 364.48 152.723C364.215 150.889 364.044 149.037 363.967 147.175C345.32 157.594 333.895 167.207 335.422 172.366C336.948 177.526 351.068 176.98 371.31 171.95C385.441 168.316 399.387 163.734 413.069 158.227C426.789 152.849 440.228 146.554 453.311 139.377C471.932 128.939 483.366 119.359 481.844 114.168Z" fill="#F9A825"/>
<path d="M562.204 406.8C566.978 388.336 555.948 369.48 537.568 364.684C519.188 359.888 500.418 370.968 495.644 389.433C490.87 407.897 501.9 426.753 520.28 431.549C538.66 436.345 557.43 425.264 562.204 406.8Z" fill="#FF4F54" fill-opacity="0.97"/>
<path d="M495.173 404.909C504.956 405.232 531.503 404.299 561.746 387.853C560.573 384.062 558.761 380.501 556.39 377.326C538.292 389.841 516.601 396.035 494.655 394.955C494.345 398.281 494.519 401.634 495.173 404.909Z" fill="#EA4753" fill-opacity="0.88"/>
<path d="M562.174 406.779C563.063 403.339 563.419 399.782 563.227 396.233C544.789 409.893 522.257 416.809 499.368 415.836C500.856 418.355 502.655 420.676 504.724 422.741C524.355 422.567 543.707 418.054 561.406 409.523C561.68 408.626 561.936 407.711 562.174 406.779Z" fill="#EA4753" fill-opacity="0.88"/>
<path d="M526.489 432.553C534.474 433.12 542.405 430.868 548.912 426.186C541.71 429.178 534.185 431.315 526.489 432.553Z" fill="#EA4753" fill-opacity="0.88"/>
<path d="M550.062 370.863C545.941 367.635 541.143 365.392 536.03 364.305C530.918 363.218 525.626 363.315 520.557 364.589C515.487 365.863 510.773 368.28 506.773 371.658C502.772 375.035 499.59 379.284 497.468 384.081C515.705 383.266 533.591 378.77 550.062 370.863Z" fill="#EA4753" fill-opacity="0.88"/>
<path d="M549.767 388.697C550.674 385.188 548.578 381.605 545.085 380.693C541.592 379.782 538.025 381.887 537.118 385.396C536.211 388.905 538.307 392.488 541.8 393.4C545.293 394.311 548.86 392.205 549.767 388.697Z" fill="#D83A4E" fill-opacity="0.87"/>
<g opacity="0.1">
<path d="M546.196 382.737C547.535 383.083 548.73 383.849 549.606 384.925C549.3 384.012 548.797 383.178 548.134 382.483C547.472 381.787 546.665 381.246 545.771 380.899C544.876 380.552 543.917 380.406 542.961 380.473C542.005 380.54 541.075 380.817 540.237 381.285C539.399 381.753 538.674 382.401 538.114 383.182C537.553 383.963 537.17 384.859 536.993 385.805C536.815 386.752 536.847 387.726 537.086 388.658C537.325 389.591 537.766 390.459 538.376 391.202C537.998 390.081 537.928 388.878 538.174 387.721C538.42 386.564 538.973 385.495 539.774 384.628C540.576 383.76 541.596 383.126 542.726 382.794C543.856 382.461 545.055 382.441 546.196 382.737Z" fill="black"/>
</g>
<path d="M528.264 403.385C528.881 400.998 527.455 398.56 525.079 397.94C522.702 397.32 520.276 398.753 519.659 401.14C519.041 403.527 520.467 405.965 522.844 406.585C525.22 407.205 527.646 405.772 528.264 403.385Z" fill="#D83A4E" fill-opacity="0.87"/>
<g opacity="0.1">
<path d="M525.84 399.318C526.751 399.554 527.564 400.075 528.16 400.806C527.944 400.195 527.598 399.638 527.145 399.174C526.692 398.711 526.145 398.352 525.54 398.123C524.935 397.894 524.288 397.8 523.644 397.848C522.999 397.896 522.373 398.085 521.808 398.4C521.244 398.716 520.755 399.152 520.375 399.678C519.995 400.203 519.734 400.805 519.609 401.442C519.485 402.079 519.501 402.736 519.655 403.366C519.809 403.997 520.098 404.586 520.502 405.093C520.237 404.326 520.185 403.501 520.352 402.707C520.519 401.913 520.899 401.18 521.449 400.586C522 399.992 522.701 399.56 523.478 399.337C524.255 399.113 525.077 399.107 525.857 399.318H525.84Z" fill="black"/>
</g>
<path d="M543.534 373.01C543.935 371.456 543.007 369.87 541.461 369.467C539.915 369.064 538.337 369.996 537.935 371.549C537.534 373.102 538.461 374.688 540.007 375.091C541.553 375.495 543.132 374.563 543.534 373.01Z" fill="#D83A4E" fill-opacity="0.87"/>
<g opacity="0.1">
<path d="M541.969 370.361C542.558 370.517 543.083 370.856 543.469 371.329C543.331 370.929 543.107 370.563 542.813 370.259C542.519 369.955 542.163 369.719 541.769 369.568C541.374 369.416 540.952 369.354 540.531 369.384C540.11 369.414 539.701 369.536 539.332 369.742C538.963 369.948 538.644 370.232 538.396 370.575C538.148 370.918 537.978 371.312 537.898 371.728C537.817 372.144 537.829 372.573 537.931 372.984C538.032 373.395 538.223 373.779 538.488 374.109C538.32 373.613 538.289 373.08 538.398 372.567C538.507 372.054 538.751 371.581 539.106 371.197C539.462 370.812 539.913 370.532 540.414 370.385C540.915 370.237 541.446 370.229 541.952 370.361H541.969Z" fill="black"/>
</g>
<path d="M511.901 399.141C512.519 396.754 511.093 394.316 508.716 393.696C506.34 393.076 503.913 394.508 503.296 396.895C502.679 399.283 504.105 401.72 506.481 402.34C508.858 402.96 511.284 401.528 511.901 399.141Z" fill="#D83A4E" fill-opacity="0.87"/>
<g opacity="0.1">
<path d="M509.473 395.054C510.385 395.289 511.198 395.811 511.794 396.542C511.578 395.931 511.231 395.374 510.779 394.91C510.326 394.447 509.778 394.088 509.174 393.859C508.569 393.63 507.922 393.536 507.277 393.584C506.633 393.632 506.007 393.82 505.442 394.136C504.877 394.452 504.388 394.888 504.009 395.413C503.629 395.939 503.368 396.541 503.243 397.178C503.119 397.815 503.134 398.472 503.288 399.102C503.442 399.733 503.732 400.322 504.135 400.829C503.871 400.062 503.819 399.237 503.986 398.443C504.153 397.649 504.532 396.916 505.083 396.322C505.634 395.728 506.335 395.296 507.112 395.073C507.888 394.849 508.711 394.843 509.491 395.054H509.473Z" fill="black"/>
</g>
<path d="M527.378 424.647C527.995 422.26 526.569 419.822 524.193 419.202C521.817 418.582 519.39 420.014 518.773 422.401C518.156 424.789 519.582 427.226 521.958 427.846C524.334 428.466 526.761 427.034 527.378 424.647Z" fill="#D83A4E" fill-opacity="0.87"/>
<g opacity="0.1">
<path d="M524.949 420.561C525.86 420.797 526.673 421.318 527.27 422.05C527.053 421.438 526.707 420.881 526.254 420.417C525.802 419.954 525.254 419.595 524.649 419.366C524.045 419.137 523.397 419.043 522.753 419.091C522.108 419.139 521.482 419.328 520.918 419.644C520.353 419.96 519.864 420.395 519.484 420.921C519.104 421.446 518.843 422.048 518.719 422.685C518.594 423.322 518.61 423.979 518.764 424.609C518.918 425.24 519.207 425.829 519.611 426.336C519.346 425.569 519.295 424.744 519.462 423.95C519.629 423.156 520.008 422.423 520.559 421.829C521.109 421.235 521.811 420.803 522.587 420.58C523.364 420.357 524.187 420.35 524.967 420.561H524.949Z" fill="black"/>
</g>
<path d="M544.065 419.531C544.679 417.139 543.246 414.699 540.865 414.083C538.483 413.466 536.055 414.906 535.441 417.298C534.828 419.691 536.261 422.13 538.642 422.746C541.023 423.363 543.452 421.923 544.065 419.531Z" fill="#D83A4E" fill-opacity="0.87"/>
<g opacity="0.1">
<path d="M541.424 417.847C542.335 418.083 543.148 418.604 543.744 419.336C543.528 418.724 543.181 418.167 542.729 417.704C542.276 417.24 541.729 416.881 541.124 416.652C540.519 416.423 539.872 416.329 539.228 416.377C538.583 416.425 537.957 416.614 537.392 416.93C536.828 417.246 536.338 417.682 535.959 418.207C535.579 418.732 535.318 419.334 535.193 419.971C535.069 420.608 535.084 421.265 535.239 421.896C535.393 422.526 535.682 423.115 536.086 423.622C535.821 422.855 535.769 422.031 535.936 421.236C536.103 420.442 536.483 419.709 537.033 419.115C537.584 418.521 538.285 418.09 539.062 417.866C539.839 417.643 540.661 417.636 541.441 417.847H541.424Z" fill="black"/>
</g>
<path d="M555.192 403.13C555.544 401.756 554.721 400.355 553.353 400.001C551.986 399.647 550.591 400.474 550.239 401.848C549.886 403.222 550.709 404.623 552.077 404.977C553.445 405.331 554.839 404.504 555.192 403.13Z" fill="#D83A4E" fill-opacity="0.87"/>
<g opacity="0.1">
<path d="M553.633 403.095C554.153 403.234 554.616 403.535 554.954 403.956C554.837 403.596 554.641 403.267 554.383 402.992C554.124 402.718 553.807 402.504 553.456 402.366C553.105 402.229 552.728 402.171 552.353 402.197C551.977 402.223 551.611 402.332 551.283 402.517C550.954 402.702 550.67 402.957 550.451 403.265C550.232 403.573 550.084 403.926 550.016 404.299C549.949 404.671 549.965 405.054 550.063 405.419C550.16 405.785 550.337 406.124 550.58 406.413C550.434 405.976 550.408 405.507 550.505 405.056C550.602 404.606 550.818 404.19 551.131 403.852C551.443 403.514 551.841 403.267 552.281 403.137C552.721 403.007 553.188 402.999 553.633 403.113V403.095Z" fill="black"/>
</g>
<path d="M523.239 375.777C523.593 374.406 522.774 373.006 521.41 372.65C520.045 372.294 518.652 373.117 518.297 374.487C517.943 375.858 518.762 377.258 520.126 377.614C521.491 377.971 522.884 377.148 523.239 375.777Z" fill="#D83A4E" fill-opacity="0.87"/>
<g opacity="0.1">
<path d="M521.806 373.401C522.326 373.54 522.789 373.841 523.127 374.262C523.01 373.902 522.814 373.573 522.555 373.299C522.296 373.024 521.98 372.81 521.629 372.672C521.278 372.535 520.901 372.477 520.525 372.503C520.15 372.529 519.784 372.639 519.455 372.823C519.127 373.008 518.843 373.263 518.624 373.571C518.405 373.879 518.256 374.232 518.189 374.605C518.122 374.977 518.138 375.36 518.235 375.725C518.333 376.091 518.51 376.43 518.753 376.719C518.607 376.282 518.581 375.813 518.678 375.363C518.775 374.912 518.991 374.496 519.304 374.158C519.616 373.82 520.013 373.573 520.454 373.443C520.894 373.313 521.361 373.305 521.806 373.419V373.401Z" fill="black"/>
</g>
<path d="M506.74 379.017C506.926 378.298 506.496 377.564 505.78 377.378C505.065 377.191 504.334 377.623 504.148 378.342C503.962 379.061 504.392 379.795 505.108 379.981C505.823 380.168 506.554 379.736 506.74 379.017Z" fill="#D83A4E" fill-opacity="0.87"/>
<g opacity="0.1">
<path d="M506.062 377.749C506.335 377.821 506.579 377.978 506.758 378.197C506.694 378.012 506.59 377.843 506.453 377.702C506.317 377.561 506.152 377.452 505.969 377.382C505.786 377.312 505.591 377.284 505.396 377.298C505.201 377.312 505.011 377.369 504.841 377.465C504.67 377.561 504.522 377.693 504.408 377.852C504.293 378.011 504.215 378.194 504.178 378.386C504.141 378.579 504.147 378.778 504.195 378.968C504.243 379.159 504.331 379.336 504.455 379.489C504.362 379.255 504.336 379.001 504.38 378.754C504.424 378.507 504.536 378.277 504.703 378.09C504.87 377.903 505.086 377.767 505.326 377.698C505.566 377.628 505.821 377.627 506.062 377.695V377.749Z" fill="black"/>
</g>
<path d="M561.363 397.41C561.549 396.691 561.119 395.956 560.404 395.77C559.688 395.583 558.957 396.014 558.771 396.733C558.585 397.452 559.015 398.187 559.731 398.373C560.446 398.56 561.177 398.129 561.363 397.41Z" fill="#D83A4E" fill-opacity="0.87"/>
<g opacity="0.1">
<path d="M560.604 396.138C560.877 396.208 561.121 396.366 561.3 396.586C561.236 396.401 561.132 396.232 560.995 396.091C560.859 395.95 560.694 395.841 560.511 395.771C560.328 395.701 560.133 395.672 559.938 395.687C559.743 395.701 559.553 395.758 559.383 395.854C559.212 395.949 559.064 396.081 558.95 396.241C558.835 396.4 558.757 396.582 558.72 396.775C558.683 396.968 558.689 397.167 558.737 397.357C558.785 397.547 558.873 397.725 558.997 397.877C558.904 397.644 558.878 397.39 558.922 397.142C558.966 396.895 559.078 396.665 559.245 396.479C559.412 396.292 559.628 396.156 559.868 396.086C560.108 396.017 560.363 396.016 560.604 396.084V396.138Z" fill="black"/>
</g>
<path d="M504.905 406.988C505.09 406.267 504.658 405.533 503.941 405.347C503.224 405.161 502.492 405.595 502.307 406.315C502.123 407.036 502.554 407.771 503.271 407.956C503.989 408.142 504.72 407.709 504.905 406.988Z" fill="#D83A4E" fill-opacity="0.87"/>
<g opacity="0.1">
<path d="M503.972 407.962C504.245 408.034 504.489 408.191 504.668 408.41C504.604 408.225 504.5 408.056 504.364 407.915C504.227 407.774 504.062 407.665 503.879 407.595C503.697 407.525 503.501 407.497 503.306 407.511C503.111 407.525 502.922 407.582 502.751 407.678C502.58 407.774 502.432 407.906 502.318 408.065C502.203 408.224 502.125 408.406 502.088 408.599C502.052 408.792 502.057 408.991 502.105 409.181C502.153 409.372 502.242 409.549 502.365 409.702C502.272 409.468 502.246 409.214 502.29 408.967C502.334 408.719 502.446 408.489 502.613 408.303C502.78 408.116 502.996 407.98 503.236 407.911C503.476 407.841 503.731 407.84 503.972 407.908V407.962Z" fill="black"/>
</g>
<path d="M514.414 421.39C514.6 420.671 514.17 419.936 513.455 419.75C512.739 419.563 512.008 419.994 511.822 420.713C511.636 421.432 512.066 422.167 512.781 422.353C513.497 422.54 514.228 422.109 514.414 421.39Z" fill="#D83A4E" fill-opacity="0.87"/>
<g opacity="0.1">
<path d="M513.693 420.144C513.967 420.216 514.21 420.373 514.39 420.592C514.325 420.407 514.221 420.238 514.085 420.097C513.949 419.956 513.784 419.847 513.601 419.777C513.418 419.707 513.223 419.679 513.028 419.693C512.833 419.707 512.643 419.764 512.473 419.86C512.302 419.956 512.154 420.088 512.04 420.247C511.925 420.406 511.847 420.589 511.81 420.781C511.773 420.974 511.779 421.173 511.827 421.363C511.875 421.554 511.963 421.731 512.087 421.884C511.994 421.65 511.968 421.396 512.012 421.149C512.056 420.901 512.168 420.672 512.335 420.485C512.502 420.298 512.718 420.162 512.958 420.093C513.198 420.023 513.453 420.022 513.693 420.09V420.144Z" fill="black"/>
</g>
<path opacity="0.1" d="M550.821 371.498C553.433 378.626 553.634 386.421 551.394 393.677C549.153 400.932 544.595 407.243 538.425 411.635C532.254 416.027 524.816 418.254 517.259 417.971C509.703 417.689 502.449 414.914 496.62 410.075C498.451 415.043 501.396 419.522 505.226 423.164C509.056 426.807 513.669 429.516 518.708 431.081C523.746 432.646 529.076 433.026 534.284 432.191C539.492 431.355 544.439 429.328 548.743 426.265C553.046 423.202 556.591 419.186 559.102 414.527C561.613 409.868 563.023 404.691 563.224 399.396C563.425 394.102 562.411 388.832 560.26 383.994C558.11 379.157 554.88 374.881 550.821 371.498Z" fill="black"/>
<path d="M155.049 711.148C200.207 711.148 236.814 704.019 236.814 695.225C236.814 686.432 200.207 679.303 155.049 679.303C109.892 679.303 73.2852 686.432 73.2852 695.225C73.2852 704.019 109.892 711.148 155.049 711.148Z" fill="#BCBEC0" fill-opacity="0.43"/>
<path d="M80.4668 321.075C80.4668 321.075 88.022 331.833 88.022 339.892C87.9604 345.296 87.4883 350.689 86.6092 356.029L108.824 349.757L105.037 318.395L80.4668 321.075Z" fill="#F8AC9B"/>
<path d="M117.817 287.022C112.416 285.988 106.814 286.666 101.842 288.953C94.9332 292.083 92.6169 296.081 90.3205 296.526C87.8633 297.654 81.0634 294.797 79.6672 296.526C79.6672 298.303 80.1766 303.653 80.1766 303.653C80.1766 303.653 76.0232 311.226 74.1861 315.243C72.349 319.261 78.3395 322.816 85.2485 324.168C92.1576 325.52 101.383 323.279 101.383 323.279C101.519 330.739 102.133 338.184 103.22 345.571C105.057 358.494 117.159 402.333 124.987 425.514C132.815 448.694 139.474 454.363 150.058 454.807C160.641 455.251 164.004 427.926 164.004 427.926C164.004 427.926 170.959 469.998 195.86 471.35C220.76 472.702 225.347 466.397 221.652 454.807C218.895 447.168 214.295 440.274 208.234 434.698C208.234 434.698 234.512 437.828 233.574 417.757C232.635 397.687 202.703 384.32 202.703 384.32C202.703 384.32 223.45 374.507 217 361.14C210.55 347.773 181.057 349.106 164.004 340.626C146.951 332.146 145.094 314.394 140.501 304.948C138.395 300.477 135.253 296.534 131.32 293.426C127.386 290.318 122.766 288.126 117.817 287.022Z" fill="#FFBB99"/>
<path d="M208.659 448.513V448.175C213.413 449.301 222.402 451.272 222.462 450.052C222.462 448.362 209.618 445.021 209.618 445.021H209.358V444.758C213.353 445.753 224.479 448.325 224.559 446.936C224.559 445.246 211.715 441.904 211.715 441.904L210.017 441.717L210.377 440.027C214.372 440.741 221.104 441.904 221.203 440.947C221.343 439.652 210.936 437.493 210.936 437.493L199.47 434.226C199.47 434.226 205.463 434.076 208.759 433.663C212.055 433.25 208.519 431.786 206.621 431.448C204.724 431.11 196.114 431.448 196.114 431.448L174.461 439.464L184.449 443.894C192.084 446.907 199.933 449.416 207.94 451.404C207.94 451.404 213.932 452.98 214.072 452.398C214.212 451.817 211.415 449.864 208.659 448.513Z" fill="#FF967E"/>
<path d="M217.291 386.687C217.291 386.687 242.398 376.487 234.593 362.593C226.788 348.698 191.098 350.084 170.462 341.269C149.826 332.455 147.579 314.002 142.021 304.184C139.496 299.579 135.743 295.511 131.046 292.29C126.348 289.069 120.83 286.778 114.91 285.591L111.334 287.037C113.214 288.372 114.547 290.16 115.149 292.153C115.751 294.147 115.591 296.246 114.692 298.16C111.334 304.646 101.861 310.669 101.861 310.669C101.861 310.669 110.222 312.517 107.999 316.693C105.776 320.869 94.6123 323.178 94.6123 323.178C94.7774 330.933 95.5198 338.671 96.8354 346.349C99.0584 359.782 105.677 397.348 115.149 421.443C124.621 445.537 137.732 459.431 150.539 459.893C163.346 460.355 165.485 442.883 165.485 442.883C165.485 442.883 182.601 487.797 212.733 489.202C242.865 490.608 244.621 471.94 240.15 459.893C236.825 451.98 231.285 444.836 223.985 439.052C223.985 439.052 255.784 442.304 254.648 421.443C253.513 400.581 217.291 386.687 217.291 386.687Z" fill="#373463"/>
<path d="M185.252 551.558C185.252 551.558 247.697 538.905 260.678 535.718C273.659 532.531 280.74 547.545 280.74 547.545C280.74 547.545 285.337 574.023 293.327 568.551C301.317 563.079 297.998 544.589 292.27 533.702C286.542 522.815 289.074 513.522 279.191 513.33C270.611 513.177 268.275 517.919 253.819 520.857C239.363 523.795 199.978 520.972 197.839 520.857C195.701 520.742 185.252 551.558 185.252 551.558Z" fill="#FFBB99"/>
<path d="M292.298 533.673C286.561 522.803 289.097 513.523 279.2 513.331C276.718 513.276 274.258 513.698 272.035 514.558C275.1 516.98 277.839 519.64 280.209 522.496C285.295 529.129 288.055 536.685 288.211 544.41L280.825 547.554C281.618 551.894 282.761 556.191 284.247 560.419C284.444 560.93 284.641 561.435 284.838 561.933L285.084 562.547C285.314 563.058 285.544 563.557 285.773 564.042L286.118 564.713C286.657 565.769 287.351 566.773 288.186 567.704C288.708 568.314 289.431 568.804 290.279 569.123C290.581 569.23 290.907 569.289 291.239 569.295C291.744 569.289 292.237 569.176 292.667 568.97C292.93 568.848 293.177 568.707 293.406 568.548C294.438 567.813 295.275 566.927 295.868 565.94C296.564 564.799 297.077 563.595 297.394 562.355C297.763 560.927 297.985 559.478 298.059 558.022C298.237 549.688 296.278 541.411 292.298 533.673Z" fill="#FCC225"/>
<path d="M118.315 591.208C118.315 591.208 128.847 620.09 128.847 638.81C128.847 657.529 125.005 662.349 123.352 668.214C121.7 674.08 104.099 687.476 104.099 691.754C104.099 696.032 115.089 692.818 122.257 688.54C129.425 684.262 151.406 673.577 153.059 667.692C154.711 661.807 145.214 662.175 145.214 655.225C145.214 648.276 152.501 611.012 151.406 596.571C150.992 588.969 149.703 581.437 147.563 574.115L118.315 591.208Z" fill="#FFBB99"/>
<path d="M153.06 667.314C153.918 664.078 151.744 662.653 149.469 660.963C140.83 670.164 126.604 677.431 126.604 677.431L120.619 672.322C117.786 675.965 113.296 680.464 109.685 684.331L109.526 684.515L108.747 685.369L108.009 686.204L107.61 686.672L106.932 687.466L106.652 687.812L105.954 688.708L105.735 688.993L105.076 689.909L104.976 690.092C104.804 690.363 104.657 690.621 104.538 690.865V691.028C104.413 691.271 104.306 691.523 104.218 691.781V691.944C104.149 692.161 104.108 692.388 104.099 692.616C104.099 695.425 108.408 695.16 113.376 693.471C116.486 692.398 119.471 690.978 122.275 689.237C124.729 687.69 128.959 685.349 133.508 682.683L134.765 681.95L138.535 679.67L139.792 678.896L142.227 677.329C143.823 676.291 145.339 675.294 146.696 674.215C147.948 673.289 149.147 672.29 150.287 671.222C150.968 670.6 151.596 669.919 152.163 669.187C152.6 668.63 152.931 667.995 153.14 667.314H153.06Z" fill="#FCC225"/>
<path d="M113.879 359.453C113.879 359.453 112.57 350.383 101.192 351.692C89.8127 353.001 81.051 363.774 74.9254 372.414C68.7998 381.054 57.8572 385.804 57.8572 390.966C57.8572 396.128 61.2318 399.942 61.2318 399.942C61.2318 399.942 56.985 414.888 57.8573 440.341C58.7297 465.794 84.9957 541.161 91.1213 561.471C97.2469 581.781 104.7 602.054 104.7 602.054C104.7 602.054 110.826 607.235 147.598 580.472C184.371 553.71 209.765 518.756 207.129 514.436C204.493 510.116 141.018 488.927 125.694 471.253C110.371 453.58 109.934 453.131 105.553 445.781C101.955 440.084 98.009 434.607 93.7384 429.38C93.7384 429.38 95.4632 412.968 98.5555 395.716C104.681 380.605 115.188 371.105 113.879 359.453Z" fill="#FCC225"/>
<path d="M75.2375 421.326C85.0596 420.598 91.4549 420.272 95.2964 420.138C95.3475 410.74 97.2223 401.419 100.84 392.574C107.89 377.096 119.983 367.366 118.476 355.432C118.476 355.432 116.97 346.142 103.874 347.482C90.7782 348.823 80.6942 359.857 73.6441 368.706C66.5941 377.556 54 382.421 54 387.727C54 393.033 60.548 397.899 60.548 397.899C60.548 397.899 58.3654 410.56 56.9466 426.478C62.529 423.584 68.7788 421.824 75.2375 421.326Z" fill="#F95954"/>
<path d="M125.988 468.413C109.996 449.998 109.541 449.551 104.968 441.9C101.212 435.97 97.0946 430.269 92.6377 424.829C78.6246 423.038 64.8095 430.221 57.1696 435.224C56.8925 441.336 56.7935 447.604 57.0112 453.6C57.9217 480.113 83.5134 541.198 89.9063 562.338C96.2993 583.478 104.078 604.58 104.078 604.58C104.078 604.58 110.471 609.972 148.848 582.116C187.226 554.259 213.728 517.877 210.977 513.38C208.226 508.884 141.98 486.809 125.988 468.413Z" fill="#F95954"/>
<path d="M249.94 431.429V431.031C255.218 432.365 265.237 434.694 265.317 433.221C265.317 431.23 251.016 427.249 251.016 427.249H250.717V426.95C255.238 428.125 267.548 431.17 267.627 429.538C267.627 427.547 253.326 423.566 253.326 423.566L251.434 423.347L251.852 421.356C256.194 422.212 263.803 423.546 263.903 422.451C264.042 420.918 252.47 418.35 252.47 418.35L239.703 414.489C239.703 414.489 246.415 414.309 250.04 413.812C253.665 413.314 249.781 411.523 247.67 411.184C245.558 410.846 235.958 411.184 235.958 411.184L211.857 420.68L222.952 425.935C232.094 430.274 249.104 434.793 249.104 434.793C249.104 434.793 255.697 436.664 255.916 435.968C256.135 435.271 252.908 433.022 249.94 431.429Z" fill="#FFBB99"/>
<path d="M235.726 411.583C235.726 411.583 196.343 402.755 173.007 391.85C146.426 379.425 117.695 357.48 110.826 352.498C103.956 347.517 94.8968 347.651 88.8041 357.595C82.7114 367.539 94.1004 375.271 102.742 380.675C111.383 386.08 172.629 411.737 188.936 417.219C205.243 422.7 237.379 431.298 237.379 431.298L235.726 411.583Z" fill="#FFBB99"/>
<path d="M530.699 906.661C525.7 906.661 520.905 904.484 517.37 900.609C513.835 896.735 511.849 891.48 511.849 886C511.849 891.48 509.863 896.735 506.329 900.609C502.794 904.484 497.999 906.661 493 906.661C495.475 906.661 497.926 907.195 500.213 908.233C502.5 909.272 504.578 910.793 506.329 912.712C508.079 914.63 509.467 916.908 510.415 919.415C511.362 921.921 511.849 924.608 511.849 927.321C511.849 924.608 512.337 921.921 513.284 919.415C514.231 916.908 515.62 914.63 517.37 912.712C519.121 910.793 521.198 909.272 523.485 908.233C525.772 907.195 528.223 906.661 530.699 906.661Z" fill="#FDD835"/>
<path d="M536.218 1074.28C535.415 1074.28 534.621 1074.11 533.88 1073.77C533.139 1073.43 532.465 1072.94 531.898 1072.32C531.331 1071.7 530.881 1070.96 530.574 1070.15C530.267 1069.34 530.109 1068.47 530.109 1067.59C530.109 1069.36 529.465 1071.06 528.32 1072.32C527.174 1073.57 525.62 1074.28 524 1074.28C525.62 1074.28 527.174 1074.98 528.32 1076.24C529.465 1077.49 530.109 1079.19 530.109 1080.97C530.109 1080.09 530.267 1079.22 530.574 1078.41C530.881 1077.6 531.331 1076.86 531.898 1076.24C532.465 1075.62 533.139 1075.12 533.88 1074.79C534.621 1074.45 535.415 1074.28 536.218 1074.28Z" fill="white"/>
<g opacity="0.3">
<path d="M558.003 822.688C570.047 822.688 579.811 812.236 579.811 799.344C579.811 786.451 570.047 776 558.003 776C545.958 776 536.194 786.451 536.194 799.344C536.194 812.236 545.958 822.688 558.003 822.688Z" fill="#D1F4FF"/>
<path opacity="0.1" d="M564.735 777.124C567.662 781.046 569.331 785.874 569.495 790.892C569.658 795.91 568.308 800.85 565.642 804.982C562.977 809.113 559.14 812.216 554.698 813.83C550.257 815.444 545.448 815.484 540.983 813.944C543.111 816.777 545.827 819.04 548.916 820.551C552.005 822.063 555.381 822.781 558.775 822.649C562.169 822.517 565.487 821.538 568.465 819.791C571.443 818.043 573.999 815.576 575.929 812.584C577.858 809.593 579.109 806.16 579.58 802.56C580.051 798.96 579.731 795.292 578.644 791.848C577.556 788.404 575.733 785.279 573.318 782.723C570.903 780.166 567.964 778.249 564.735 777.124Z" fill="black"/>
<path d="M559.568 800.593C561.85 800.593 563.701 798.612 563.701 796.169C563.701 793.725 561.85 791.745 559.568 791.745C557.285 791.745 555.435 793.725 555.435 796.169C555.435 798.612 557.285 800.593 559.568 800.593Z" fill="#A6CDDD"/>
<g opacity="0.1">
<path d="M560.614 792.841C561.491 792.841 562.345 793.141 563.052 793.697C562.699 793.197 562.25 792.782 561.736 792.481C561.222 792.18 560.654 792 560.07 791.952C559.486 791.904 558.899 791.989 558.348 792.203C557.797 792.416 557.295 792.752 556.874 793.189C556.454 793.626 556.125 794.153 555.91 794.736C555.694 795.32 555.597 795.945 555.625 796.572C555.652 797.198 555.804 797.811 556.07 798.37C556.336 798.929 556.709 799.421 557.166 799.813C556.752 799.145 556.515 798.369 556.481 797.568C556.447 796.766 556.617 795.97 556.973 795.265C557.329 794.559 557.858 793.97 558.502 793.561C559.147 793.152 559.883 792.938 560.633 792.943L560.614 792.841Z" fill="black"/>
</g>
<path d="M569.503 791.716C571.059 791.716 572.321 790.365 572.321 788.699C572.321 787.033 571.059 785.682 569.503 785.682C567.946 785.682 566.684 787.033 566.684 788.699C566.684 790.365 567.946 791.716 569.503 791.716Z" fill="#A6CDDD"/>
<g opacity="0.1">
<path d="M570.208 786.459C570.802 786.458 571.382 786.658 571.865 787.03C571.641 786.656 571.343 786.34 570.991 786.103C570.64 785.867 570.244 785.716 569.832 785.662C569.42 785.609 569.002 785.653 568.608 785.792C568.213 785.931 567.853 786.162 567.552 786.468C567.25 786.773 567.016 787.146 566.865 787.56C566.714 787.974 566.65 788.419 566.678 788.862C566.706 789.305 566.826 789.736 567.028 790.125C567.229 790.513 567.509 790.849 567.846 791.108C567.563 790.652 567.4 790.123 567.377 789.576C567.353 789.029 567.469 788.486 567.711 788.004C567.954 787.522 568.314 787.12 568.754 786.841C569.194 786.562 569.696 786.416 570.208 786.419V786.459Z" fill="black"/>
</g>
<path d="M561.188 782.385C562.198 782.385 563.016 781.508 563.016 780.427C563.016 779.347 562.198 778.47 561.188 778.47C560.178 778.47 559.359 779.347 559.359 780.427C559.359 781.508 560.178 782.385 561.188 782.385Z" fill="#A6CDDD"/>
<g opacity="0.1">
<path d="M561.639 778.952C562.028 778.953 562.407 779.081 562.725 779.319C562.597 779.026 562.405 778.77 562.166 778.572C561.927 778.374 561.647 778.24 561.35 778.181C561.053 778.121 560.747 778.138 560.457 778.231C560.168 778.323 559.903 778.488 559.684 778.711C559.466 778.935 559.3 779.211 559.201 779.517C559.102 779.822 559.072 780.149 559.114 780.469C559.156 780.79 559.269 781.095 559.443 781.359C559.617 781.624 559.848 781.84 560.116 781.99C559.957 781.689 559.872 781.35 559.869 781.004C559.867 780.658 559.946 780.317 560.101 780.014C560.255 779.71 560.479 779.453 560.751 779.267C561.024 779.082 561.336 778.973 561.658 778.952H561.639Z" fill="black"/>
</g>
<path d="M544.903 805.908C546.46 805.908 547.722 804.557 547.722 802.89C547.722 801.224 546.46 799.873 544.903 799.873C543.346 799.873 542.084 801.224 542.084 802.89C542.084 804.557 543.346 805.908 544.903 805.908Z" fill="#A6CDDD"/>
<g opacity="0.1">
<path d="M545.61 800.643C546.205 800.641 546.785 800.841 547.267 801.213C547.043 800.839 546.745 800.523 546.393 800.286C546.042 800.05 545.646 799.899 545.234 799.845C544.822 799.792 544.404 799.836 544.01 799.975C543.616 800.114 543.255 800.345 542.954 800.651C542.653 800.956 542.418 801.329 542.267 801.743C542.116 802.157 542.053 802.602 542.081 803.045C542.109 803.488 542.228 803.919 542.43 804.308C542.632 804.696 542.911 805.032 543.248 805.291C542.965 804.835 542.803 804.306 542.779 803.759C542.755 803.212 542.871 802.669 543.114 802.187C543.356 801.705 543.717 801.303 544.156 801.024C544.596 800.745 545.099 800.599 545.61 800.602V800.643Z" fill="black"/>
</g>
<path d="M554.784 813.317C556.341 813.317 557.603 811.967 557.603 810.3C557.603 808.634 556.341 807.283 554.784 807.283C553.227 807.283 551.965 808.634 551.965 810.3C551.965 811.967 553.227 813.317 554.784 813.317Z" fill="#A6CDDD"/>
<g opacity="0.1">
<path d="M555.449 808.049C556.044 808.047 556.624 808.247 557.106 808.62C556.882 808.246 556.584 807.929 556.232 807.692C555.881 807.456 555.485 807.305 555.073 807.252C554.661 807.198 554.243 807.242 553.849 807.381C553.455 807.521 553.094 807.751 552.793 808.057C552.492 808.363 552.257 808.736 552.106 809.15C551.955 809.563 551.891 810.008 551.92 810.451C551.948 810.895 552.067 811.326 552.269 811.714C552.471 812.102 552.75 812.438 553.087 812.697C552.804 812.242 552.642 811.712 552.618 811.165C552.594 810.619 552.71 810.075 552.952 809.593C553.195 809.112 553.556 808.71 553.995 808.43C554.435 808.151 554.938 808.005 555.449 808.008V808.049Z" fill="black"/>
</g>
<path d="M568.119 815.309C569.676 815.309 570.938 813.958 570.938 812.291C570.938 810.625 569.676 809.274 568.119 809.274C566.562 809.274 565.3 810.625 565.3 812.291C565.3 813.958 566.562 815.309 568.119 815.309Z" fill="#A6CDDD"/>
<g opacity="0.1">
<path d="M568.785 810.074C569.38 810.071 569.96 810.271 570.442 810.645C570.218 810.27 569.92 809.954 569.568 809.717C569.217 809.481 568.821 809.33 568.409 809.277C567.997 809.223 567.579 809.267 567.185 809.406C566.791 809.546 566.43 809.776 566.129 810.082C565.827 810.388 565.593 810.761 565.442 811.174C565.291 811.588 565.227 812.033 565.255 812.476C565.284 812.919 565.403 813.351 565.605 813.739C565.806 814.127 566.086 814.463 566.423 814.722C566.14 814.266 565.977 813.737 565.954 813.19C565.93 812.643 566.046 812.1 566.288 811.618C566.531 811.137 566.892 810.735 567.331 810.455C567.771 810.176 568.273 810.03 568.785 810.033V810.074Z" fill="black"/>
</g>
<path d="M573.581 801.39C574.475 801.39 575.2 800.614 575.2 799.657C575.2 798.7 574.475 797.924 573.581 797.924C572.687 797.924 571.962 798.7 571.962 799.657C571.962 800.614 572.687 801.39 573.581 801.39Z" fill="#A6CDDD"/>
<g opacity="0.1">
<path d="M573.984 798.383C574.325 798.38 574.659 798.494 574.936 798.709C574.814 798.486 574.647 798.296 574.447 798.151C574.248 798.007 574.021 797.912 573.783 797.873C573.544 797.834 573.301 797.853 573.071 797.928C572.84 798.003 572.628 798.132 572.45 798.305C572.272 798.479 572.132 798.693 572.041 798.932C571.95 799.17 571.91 799.428 571.924 799.685C571.937 799.943 572.004 800.194 572.12 800.42C572.236 800.646 572.398 800.841 572.593 800.992C572.436 800.731 572.348 800.43 572.337 800.119C572.326 799.809 572.393 799.502 572.531 799.229C572.669 798.956 572.873 798.727 573.122 798.568C573.371 798.408 573.655 798.323 573.945 798.321L573.984 798.383Z" fill="black"/>
</g>
<path d="M549.34 787.42C550.234 787.42 550.959 786.645 550.959 785.688C550.959 784.73 550.234 783.955 549.34 783.955C548.446 783.955 547.721 784.73 547.721 785.688C547.721 786.645 548.446 787.42 549.34 787.42Z" fill="#A6CDDD"/>
<g opacity="0.1">
<path d="M447.03 1081.33C447.372 1081.33 447.705 1081.44 447.982 1081.66C447.854 1081.44 447.682 1081.26 447.48 1081.12C447.278 1080.99 447.051 1080.9 446.814 1080.87C446.577 1080.84 446.337 1080.86 446.11 1080.94C445.884 1081.02 445.677 1081.16 445.504 1081.33C445.331 1081.51 445.196 1081.72 445.11 1081.96C445.023 1082.2 444.987 1082.46 445.004 1082.71C445.021 1082.97 445.09 1083.21 445.206 1083.44C445.323 1083.66 445.484 1083.85 445.678 1084C445.521 1083.74 445.432 1083.44 445.421 1083.13C445.41 1082.82 445.477 1082.51 445.616 1082.24C445.754 1081.96 445.958 1081.74 446.207 1081.58C446.456 1081.42 446.74 1081.33 447.03 1081.33Z" fill="black"/>
</g>
<path d="M540.514 791.507C540.988 791.507 541.372 791.096 541.372 790.589C541.372 790.082 540.988 789.671 540.514 789.671C540.04 789.671 539.656 790.082 539.656 790.589C539.656 791.096 540.04 791.507 540.514 791.507Z" fill="#A6CDDD"/>
<g opacity="0.1">
<path d="M540.718 789.927C540.897 789.93 541.071 789.994 541.213 790.111C541.147 789.992 541.056 789.892 540.948 789.816C540.84 789.741 540.718 789.692 540.59 789.674C540.462 789.656 540.332 789.67 540.209 789.713C540.087 789.756 539.975 789.829 539.882 789.925C539.789 790.021 539.718 790.138 539.674 790.268C539.629 790.398 539.613 790.536 539.625 790.674C539.638 790.811 539.679 790.944 539.746 791.062C539.813 791.18 539.904 791.28 540.013 791.355C539.932 791.218 539.886 791.06 539.881 790.898C539.875 790.735 539.91 790.575 539.982 790.431C540.054 790.288 540.16 790.168 540.289 790.083C540.418 789.998 540.566 789.951 540.718 789.947V789.927Z" fill="black"/>
</g>
<path d="M577.798 805.939C578.272 805.939 578.656 805.528 578.656 805.021C578.656 804.514 578.272 804.103 577.798 804.103C577.324 804.103 576.94 804.514 576.94 805.021C576.94 805.528 577.324 805.939 577.798 805.939Z" fill="#A6CDDD"/>
<g opacity="0.1">
<path d="M578.024 804.341C578.204 804.344 578.377 804.408 578.52 804.525C578.453 804.406 578.363 804.306 578.255 804.23C578.147 804.155 578.024 804.106 577.896 804.088C577.768 804.07 577.638 804.084 577.516 804.127C577.393 804.171 577.282 804.243 577.189 804.339C577.096 804.435 577.025 804.552 576.98 804.682C576.936 804.812 576.919 804.95 576.932 805.088C576.944 805.225 576.986 805.358 577.053 805.476C577.12 805.594 577.211 805.694 577.319 805.769C577.238 805.632 577.193 805.474 577.187 805.312C577.182 805.15 577.217 804.989 577.289 804.846C577.36 804.702 577.466 804.582 577.596 804.497C577.725 804.412 577.873 804.365 578.024 804.362V804.341Z" fill="black"/>
</g>
<path d="M576.958 794.234C577.432 794.234 577.816 793.823 577.816 793.316C577.816 792.808 577.432 792.397 576.958 792.397C576.485 792.397 576.101 792.808 576.101 793.316C576.101 793.823 576.485 794.234 576.958 794.234Z" fill="#A6CDDD"/>
<g opacity="0.1">
<path d="M577.167 792.629C577.346 792.632 577.52 792.697 577.663 792.813C577.596 792.695 577.505 792.594 577.397 792.518C577.289 792.443 577.167 792.394 577.039 792.376C576.911 792.358 576.781 792.372 576.658 792.415C576.536 792.459 576.424 792.531 576.331 792.627C576.239 792.723 576.167 792.84 576.123 792.97C576.078 793.1 576.062 793.238 576.074 793.376C576.087 793.513 576.128 793.646 576.195 793.764C576.262 793.882 576.354 793.982 576.462 794.057C576.381 793.92 576.335 793.762 576.33 793.6C576.325 793.438 576.36 793.277 576.431 793.134C576.503 792.991 576.609 792.87 576.738 792.785C576.867 792.7 577.015 792.653 577.167 792.65V792.629Z" fill="black"/>
</g>
<path d="M544.041 811.638C544.515 811.638 544.899 811.227 544.899 810.72C544.899 810.213 544.515 809.802 544.041 809.802C543.568 809.802 543.184 810.213 543.184 810.72C543.184 811.227 543.568 811.638 544.041 811.638Z" fill="#A6CDDD"/>
<g opacity="0.1">
<path d="M544.263 810.057C544.442 810.06 544.616 810.124 544.758 810.241C544.692 810.122 544.601 810.022 544.493 809.946C544.385 809.87 544.262 809.822 544.135 809.804C544.007 809.786 543.877 809.8 543.754 809.843C543.632 809.886 543.52 809.959 543.427 810.055C543.334 810.151 543.263 810.268 543.219 810.398C543.174 810.527 543.158 810.666 543.17 810.804C543.183 810.941 543.224 811.074 543.291 811.192C543.358 811.31 543.449 811.41 543.558 811.485C543.477 811.348 543.431 811.19 543.426 811.028C543.42 810.865 543.455 810.704 543.527 810.561C543.599 810.418 543.705 810.298 543.834 810.213C543.963 810.128 544.111 810.081 544.263 810.077V810.057Z" fill="black"/>
</g>
<path d="M551.95 817.958C552.424 817.958 552.808 817.547 552.808 817.04C552.808 816.533 552.424 816.122 551.95 816.122C551.477 816.122 551.093 816.533 551.093 817.04C551.093 817.547 551.477 817.958 551.95 817.958Z" fill="#A6CDDD"/>
<g opacity="0.1">
<path d="M552.173 816.372C552.352 816.375 552.526 816.439 552.669 816.556C552.602 816.437 552.511 816.337 552.403 816.261C552.295 816.185 552.173 816.137 552.045 816.119C551.917 816.101 551.787 816.114 551.664 816.158C551.542 816.201 551.43 816.274 551.337 816.37C551.245 816.466 551.173 816.583 551.129 816.713C551.084 816.842 551.068 816.981 551.08 817.119C551.093 817.256 551.134 817.389 551.201 817.507C551.268 817.625 551.359 817.725 551.468 817.8C551.387 817.663 551.341 817.505 551.336 817.343C551.331 817.18 551.366 817.019 551.437 816.876C551.509 816.733 551.615 816.613 551.744 816.528C551.873 816.443 552.021 816.396 552.173 816.392V816.372Z" fill="black"/>
</g>
</g>
<path d="M519.634 472.013C516.713 472.013 514.349 474.175 514.349 476.846C514.349 474.175 511.986 472.013 509.064 472.013C511.986 472.013 514.349 469.852 514.349 467.181C514.349 469.852 516.713 472.013 519.634 472.013Z" fill="white"/>
<path d="M371.139 335.516C368.218 335.516 365.854 337.677 365.854 340.349C365.854 337.677 363.491 335.516 360.569 335.516C363.491 335.516 365.854 333.355 365.854 330.684C365.854 333.355 368.218 335.516 371.139 335.516Z" fill="white"/>
<path d="M581.57 301.832C578.649 301.832 576.285 303.993 576.285 306.665C576.285 303.993 573.921 301.832 571 301.832C573.921 301.832 576.285 299.671 576.285 297C576.285 299.671 578.649 301.832 581.57 301.832Z" fill="white"/>
<path d="M608.82 621.168C605.899 621.168 603.535 623.329 603.535 626C603.535 623.329 601.171 621.168 598.25 621.168C601.171 621.168 603.535 619.007 603.535 616.336C603.535 619.007 605.899 621.168 608.82 621.168Z" fill="white"/>
<path d="M480.333 353.087C474.504 353.087 469.762 357.409 469.762 362.738C469.762 357.409 465.035 353.087 459.192 353.087C465.021 353.087 469.762 348.765 469.762 343.423C469.762 348.765 474.49 353.087 480.333 353.087Z" fill="#59BAF7"/>
<path d="M455.875 461.678C448.476 461.678 442.486 467.154 442.486 473.919C442.486 467.168 436.497 461.678 429.098 461.678C436.497 461.678 442.486 456.201 442.486 449.436C442.486 456.201 448.476 461.678 455.875 461.678Z" fill="#FFF176"/>
<path d="M521.983 178.241C514.584 178.241 508.594 183.718 508.594 190.483C508.594 183.731 502.604 178.241 495.205 178.241C502.604 178.241 508.594 172.765 508.594 166C508.594 172.765 514.598 178.241 521.983 178.241Z" fill="#FFF176"/>
<path d="M493.723 257.584C486.324 257.584 480.334 263.06 480.334 269.825C480.334 263.074 474.344 257.584 466.945 257.584C474.344 257.584 480.334 252.107 480.334 245.342C480.334 252.094 486.324 257.584 493.723 257.584Z" fill="white"/>
<path d="M546.867 402.658C545.457 402.349 544.033 403.127 543.696 404.416C544.033 403.127 543.182 401.825 541.772 401.517C543.182 401.825 544.606 401.047 544.944 399.758C544.591 401.047 545.457 402.349 546.867 402.658Z" fill="white"/>
<path d="M372.635 417.329C371.813 417.141 370.977 417.611 370.771 418.362C370.977 417.611 370.463 416.846 369.641 416.658C370.463 416.846 371.3 416.376 371.505 415.624C371.3 416.389 371.813 417.154 372.635 417.329Z" fill="white"/>
<path d="M430.596 416.483C429.774 416.295 428.937 416.765 428.732 417.517C428.937 416.765 428.424 416 427.602 415.812C428.424 416 429.26 415.53 429.466 414.778C429.26 415.53 429.774 416.295 430.596 416.483Z" fill="white"/>
<path d="M274.995 355.665C274.173 355.477 273.336 355.947 273.13 356.698C273.336 355.947 272.822 355.181 272 354.994C272.822 355.181 273.659 354.712 273.864 353.96C273.659 354.712 274.158 355.477 274.995 355.665Z" fill="white"/>
<g opacity="0.3">
<path d="M351.658 448.867C358.222 454.869 358.222 464.6 351.658 470.602C345.093 476.604 334.45 476.604 327.886 470.602C321.322 464.6 321.321 454.869 327.886 448.867C334.45 442.865 345.093 442.865 351.658 448.867Z" fill="#D1F4FF"/>
<path opacity="0.1" d="M344.959 474.361C347.264 471.73 348.659 468.388 348.659 464.751C348.659 456.254 341.128 449.381 331.849 449.381C330.044 449.381 328.297 449.65 326.652 450.133C329.735 446.616 334.462 444.375 339.777 444.375C349.07 444.375 356.586 451.261 356.586 459.744C356.586 466.576 351.712 472.361 344.959 474.361Z" fill="black"/>
<path d="M344.166 461.824C344.166 460.214 342.742 458.912 340.981 458.912C339.219 458.912 337.795 460.214 337.795 461.824C337.795 463.435 339.219 464.737 340.981 464.737C342.742 464.751 344.166 463.435 344.166 461.824Z" fill="#A6CDDD"/>
<g opacity="0.1">
<path d="M341.772 463.986C342.477 463.986 343.123 463.784 343.652 463.422C343.079 464.214 342.095 464.737 340.98 464.737C339.218 464.737 337.794 463.435 337.794 461.825C337.794 460.858 338.308 459.999 339.115 459.462C338.778 459.919 338.587 460.469 338.587 461.059C338.572 462.684 340.011 463.986 341.772 463.986Z" fill="black"/>
</g>
<path d="M350.816 466.737C350.816 465.636 349.847 464.75 348.643 464.75C347.44 464.75 346.471 465.636 346.471 466.737C346.471 467.837 347.44 468.723 348.643 468.723C349.833 468.723 350.816 467.837 350.816 466.737Z" fill="#A6CDDD"/>
<g opacity="0.1">
<path d="M349.171 468.213C349.655 468.213 350.096 468.066 350.448 467.838C350.052 468.374 349.391 468.737 348.628 468.737C347.424 468.737 346.455 467.851 346.455 466.75C346.455 466.093 346.807 465.502 347.351 465.14C347.13 465.448 346.998 465.824 346.998 466.227C346.998 467.314 347.967 468.213 349.171 468.213Z" fill="black"/>
</g>
<path d="M343.622 472.187C343.622 471.475 342.991 470.898 342.213 470.898C341.435 470.898 340.804 471.475 340.804 472.187C340.804 472.898 341.435 473.475 342.213 473.475C342.991 473.489 343.622 472.912 343.622 472.187Z" fill="#A6CDDD"/>
<g opacity="0.1">
<path d="M342.565 473.153C342.874 473.153 343.167 473.059 343.402 472.912C343.153 473.261 342.712 473.489 342.213 473.489C341.435 473.489 340.804 472.912 340.804 472.2C340.804 471.771 341.039 471.395 341.391 471.153C341.244 471.355 341.156 471.596 341.156 471.865C341.156 472.576 341.787 473.153 342.565 473.153Z" fill="black"/>
</g>
<path d="M331.849 457.394C331.849 456.294 330.88 455.408 329.677 455.408C328.473 455.408 327.504 456.294 327.504 457.394C327.504 458.495 328.473 459.381 329.677 459.381C330.866 459.381 331.849 458.495 331.849 457.394Z" fill="#A6CDDD"/>
<g opacity="0.1">
<path d="M330.203 458.872C330.688 458.872 331.128 458.724 331.48 458.496C331.084 459.033 330.423 459.395 329.66 459.395C328.456 459.395 327.487 458.509 327.487 457.408C327.487 456.751 327.84 456.16 328.383 455.798C328.163 456.106 328.03 456.482 328.03 456.885C328.03 457.972 328.999 458.872 330.203 458.872Z" fill="black"/>
</g>
<path d="M339.453 452.522C339.453 451.422 338.484 450.536 337.28 450.536C336.076 450.536 335.107 451.422 335.107 452.522C335.107 453.623 336.076 454.509 337.28 454.509C338.484 454.509 339.453 453.623 339.453 452.522Z" fill="#A6CDDD"/>
<g opacity="0.1">
<path d="M337.824 453.999C338.309 453.999 338.749 453.851 339.102 453.623C338.705 454.16 338.045 454.522 337.281 454.522C336.077 454.522 335.108 453.637 335.108 452.536C335.108 451.878 335.461 451.288 336.004 450.925C335.784 451.234 335.652 451.61 335.652 452.012C335.637 453.113 336.62 453.999 337.824 453.999Z" fill="black"/>
</g>
<path d="M349.744 451.207C349.744 450.106 348.775 449.22 347.571 449.22C346.367 449.22 345.398 450.106 345.398 451.207C345.398 452.307 346.367 453.193 347.571 453.193C348.76 453.193 349.744 452.294 349.744 451.207Z" fill="#A6CDDD"/>
<g opacity="0.1">
<path d="M348.1 452.67C348.584 452.67 349.025 452.522 349.377 452.294C348.995 452.831 348.32 453.193 347.557 453.193C346.353 453.193 345.384 452.307 345.384 451.207C345.384 450.549 345.736 449.958 346.279 449.596C346.059 449.905 345.927 450.281 345.927 450.683C345.927 451.784 346.896 452.67 348.1 452.67Z" fill="black"/>
</g>
<path d="M353.018 459.529C353.018 458.898 352.46 458.388 351.77 458.388C351.08 458.388 350.522 458.898 350.522 459.529C350.522 460.159 351.08 460.669 351.77 460.669C352.46 460.656 353.018 460.146 353.018 459.529Z" fill="#A6CDDD"/>
<g opacity="0.1">
<path d="M352.079 460.361C352.358 460.361 352.607 460.28 352.813 460.146C352.592 460.455 352.211 460.656 351.77 460.656C351.08 460.656 350.522 460.146 350.522 459.515C350.522 459.139 350.728 458.804 351.036 458.589C350.904 458.764 350.831 458.978 350.831 459.22C350.845 459.851 351.403 460.361 352.079 460.361Z" fill="black"/>
</g>
<path d="M334.329 468.723C334.329 468.092 333.771 467.582 333.081 467.582C332.391 467.582 331.833 468.092 331.833 468.723C331.833 469.354 332.391 469.864 333.081 469.864C333.771 469.864 334.329 469.354 334.329 468.723Z" fill="#A6CDDD"/>
<g opacity="0.1">
<path d="M333.39 469.569C333.669 469.569 333.919 469.489 334.124 469.355C333.904 469.663 333.522 469.865 333.082 469.865C332.392 469.865 331.834 469.355 331.834 468.724C331.834 468.348 332.04 468.012 332.348 467.798C332.216 467.972 332.142 468.187 332.142 468.428C332.157 469.059 332.715 469.569 333.39 469.569Z" fill="black"/>
</g>
<path d="M326.945 465.488C326.945 465.153 326.652 464.884 326.285 464.884C325.918 464.884 325.624 465.153 325.624 465.488C325.624 465.824 325.918 466.092 326.285 466.092C326.652 466.079 326.945 465.81 326.945 465.488Z" fill="#A6CDDD"/>
<g opacity="0.1">
<path d="M326.446 465.931C326.593 465.931 326.725 465.891 326.828 465.811C326.71 465.972 326.505 466.079 326.285 466.079C325.918 466.079 325.624 465.811 325.624 465.475C325.624 465.274 325.727 465.099 325.888 464.992C325.815 465.086 325.786 465.193 325.786 465.314C325.8 465.663 326.094 465.931 326.446 465.931Z" fill="black"/>
</g>
<path d="M355.676 455.999C355.676 455.663 355.382 455.395 355.015 455.395C354.648 455.395 354.354 455.663 354.354 455.999C354.354 456.335 354.648 456.603 355.015 456.603C355.382 456.603 355.676 456.335 355.676 455.999Z" fill="#A6CDDD"/>
<g opacity="0.1">
<path d="M355.191 456.442C355.338 456.442 355.47 456.402 355.573 456.321C355.456 456.482 355.25 456.59 355.03 456.59C354.663 456.59 354.369 456.321 354.369 455.986C354.369 455.784 354.472 455.61 354.633 455.503C354.56 455.597 354.531 455.704 354.531 455.838C354.531 456.174 354.824 456.442 355.191 456.442Z" fill="black"/>
</g>
<path d="M355.029 463.704C355.029 463.368 354.736 463.1 354.369 463.1C354.002 463.1 353.708 463.368 353.708 463.704C353.708 464.039 354.002 464.308 354.369 464.308C354.736 464.294 355.029 464.026 355.029 463.704Z" fill="#A6CDDD"/>
<g opacity="0.1">
<path d="M354.53 464.146C354.677 464.146 354.809 464.106 354.912 464.025C354.794 464.187 354.589 464.294 354.369 464.294C354.002 464.294 353.708 464.025 353.708 463.69C353.708 463.489 353.811 463.314 353.972 463.207C353.899 463.301 353.87 463.408 353.87 463.529C353.884 463.878 354.178 464.146 354.53 464.146Z" fill="black"/>
</g>
<path d="M329.661 452.24C329.661 451.905 329.368 451.636 329 451.636C328.633 451.636 328.34 451.905 328.34 452.24C328.34 452.576 328.633 452.844 329 452.844C329.368 452.844 329.661 452.576 329.661 452.24Z" fill="#A6CDDD"/>
<g opacity="0.1">
<path d="M329.178 452.683C329.324 452.683 329.457 452.643 329.559 452.563C329.442 452.724 329.236 452.831 329.016 452.831C328.649 452.831 328.355 452.563 328.355 452.227C328.355 452.026 328.458 451.851 328.62 451.744C328.546 451.838 328.517 451.945 328.517 452.066C328.517 452.415 328.811 452.683 329.178 452.683Z" fill="black"/>
</g>
<path d="M335.754 448.08C335.754 447.744 335.46 447.476 335.093 447.476C334.726 447.476 334.433 447.744 334.433 448.08C334.433 448.415 334.726 448.684 335.093 448.684C335.46 448.684 335.754 448.415 335.754 448.08Z" fill="#A6CDDD"/>
<g opacity="0.1">
<path d="M335.268 448.522C335.415 448.522 335.547 448.482 335.65 448.401C335.533 448.562 335.327 448.669 335.107 448.669C334.74 448.669 334.446 448.401 334.446 448.065C334.446 447.864 334.549 447.69 334.711 447.582C334.637 447.676 334.608 447.784 334.608 447.904C334.608 448.253 334.901 448.522 335.268 448.522Z" fill="black"/>
</g>
</g>
<path d="M577.634 856.013C574.713 856.013 572.349 858.175 572.349 860.846C572.349 858.175 569.986 856.013 567.064 856.013C569.986 856.013 572.349 853.852 572.349 851.181C572.349 853.852 574.713 856.013 577.634 856.013Z" fill="white"/>
<path d="M429.139 719.516C426.218 719.516 423.854 721.677 423.854 724.349C423.854 721.677 421.491 719.516 418.569 719.516C421.491 719.516 423.854 717.355 423.854 714.684C423.854 717.355 426.218 719.516 429.139 719.516Z" fill="white"/>
<path d="M475.411 665.369C472.489 665.369 470.126 667.53 470.126 670.201C470.126 667.53 467.762 665.369 464.841 665.369C467.762 665.369 470.126 663.208 470.126 660.537C470.141 663.208 472.504 665.369 475.411 665.369Z" fill="white"/>
<path d="M361.857 699.355C358.936 699.355 356.572 701.516 356.572 704.188C356.572 701.516 354.209 699.355 351.287 699.355C354.209 699.355 356.572 697.194 356.572 694.523C356.572 697.194 358.936 699.355 361.857 699.355Z" fill="white"/>
<path d="M538.333 737.087C532.504 737.087 527.762 741.409 527.762 746.738C527.762 741.409 523.035 737.087 517.192 737.087C523.021 737.087 527.762 732.765 527.762 727.423C527.762 732.765 532.49 737.087 538.333 737.087Z" fill="#59BAF7"/>
<path d="M513.875 845.678C506.476 845.678 500.486 851.154 500.486 857.919C500.486 851.168 494.497 845.678 487.098 845.678C494.497 845.678 500.486 840.201 500.486 833.436C500.486 840.201 506.476 845.678 513.875 845.678Z" fill="#FFF176"/>
<path d="M579.983 562.241C572.584 562.241 566.594 567.718 566.594 574.483C566.594 567.731 560.604 562.241 553.205 562.241C560.604 562.241 566.594 556.765 566.594 550C566.594 556.765 572.598 562.241 579.983 562.241Z" fill="#FFF176"/>
<path d="M597.778 332.242C590.378 332.242 584.389 337.718 584.389 344.483C584.389 337.732 578.399 332.242 571 332.242C578.399 332.242 584.389 326.765 584.389 320C584.389 326.752 590.378 332.242 597.778 332.242Z" fill="white"/>
<path d="M604.867 786.658C603.457 786.349 602.033 787.127 601.696 788.416C602.033 787.127 601.182 785.825 599.772 785.517C601.182 785.825 602.606 785.047 602.944 783.758C602.591 785.047 603.457 786.349 604.867 786.658Z" fill="white"/>
<path d="M430.635 801.329C429.813 801.141 428.977 801.611 428.771 802.362C428.977 801.611 428.463 800.846 427.641 800.658C428.463 800.846 429.3 800.376 429.505 799.624C429.3 800.389 429.813 801.154 430.635 801.329Z" fill="white"/>
<path d="M488.596 800.483C487.774 800.295 486.937 800.765 486.732 801.517C486.937 800.765 486.424 800 485.602 799.812C486.424 800 487.26 799.53 487.466 798.778C487.26 799.53 487.774 800.295 488.596 800.483Z" fill="white"/>
<path d="M332.995 739.665C332.173 739.477 331.336 739.947 331.13 740.698C331.336 739.947 330.822 739.181 330 738.994C330.822 739.181 331.659 738.712 331.864 737.96C331.659 738.712 332.158 739.477 332.995 739.665Z" fill="white"/>
<defs>
<linearGradient id="paint0_linear_18_986" x1="648.782" y1="480.391" x2="225.6" y2="571.265" gradientUnits="userSpaceOnUse">
<stop offset="0.208762" stop-color="#2B3990"/>
<stop offset="0.848958" stop-color="#27AAE1"/>
</linearGradient>
<linearGradient id="paint1_linear_18_986" x1="634.486" y1="486.051" x2="302.42" y2="551.266" gradientUnits="userSpaceOnUse">
<stop offset="0.208762" stop-color="#2B3990"/>
<stop offset="0.848958" stop-color="#27AAE1"/>
</linearGradient>
</defs>
</svg>
