<svg width="353" height="343" viewBox="0 0 353 343" fill="none" xmlns="http://www.w3.org/2000/svg">
<path d="M153.837 137.168H149.332C149.273 137.168 149.224 137.215 149.224 137.272V138.241C149.224 138.298 149.273 138.344 149.332 138.344H152.199L148.636 141.793C147.742 141.127 146.652 140.767 145.506 140.767C144.131 140.767 142.837 141.286 141.866 142.227C140.896 143.168 140.357 144.419 140.357 145.749C140.357 147.08 140.894 148.333 141.866 149.272C142.837 150.213 144.131 150.732 145.506 150.732C146.881 150.732 148.175 150.213 149.146 149.272C150.118 148.333 150.654 147.08 150.654 145.749C150.654 144.64 150.283 143.589 149.596 142.723L153.157 139.277V142.047C153.157 142.104 153.205 142.151 153.264 142.151H154.266C154.325 142.151 154.373 142.104 154.373 142.047V137.687C154.373 137.402 154.131 137.168 153.837 137.168ZM145.506 149.417C143.416 149.417 141.716 147.772 141.716 145.749C141.716 143.727 143.416 142.082 145.506 142.082C147.596 142.082 149.296 143.727 149.296 145.749C149.296 147.772 147.596 149.417 145.506 149.417Z" fill="#53A2D3"/>
<rect width="13.3204" height="1.35094" transform="matrix(-0.718576 -0.695449 -0.718576 0.695449 164.698 159.801)" fill="#53A2D3"/>
<path d="M108.14 105.99L112.695 122.444L125.141 110.399L108.14 105.99ZM141.578 136.265L118.918 114.335L116.762 116.421L139.422 138.352L141.578 136.265Z" fill="#53A2D3"/>
<path d="M208.599 144.583C209.557 143.656 210.087 142.42 210.087 141.109C210.087 139.796 209.559 138.562 208.599 137.635C207.641 136.707 206.365 136.195 205.01 136.195C203.655 136.195 202.378 136.706 201.42 137.635C200.462 138.564 199.933 139.796 199.933 141.109C199.933 142.213 200.306 143.261 200.994 144.118C201.125 144.28 201.266 144.434 201.418 144.583C201.57 144.73 201.731 144.867 201.897 144.993C202.605 145.526 203.44 145.865 204.33 145.979V147.822H202.292C202.214 147.822 202.149 147.884 202.149 147.96V148.998C202.149 149.075 202.214 149.137 202.292 149.137H204.33V151.559C204.33 151.635 204.395 151.697 204.473 151.697H205.546C205.625 151.697 205.689 151.635 205.689 151.559V149.137H207.727C207.806 149.137 207.87 149.075 207.87 148.998V147.96C207.87 147.884 207.806 147.822 207.727 147.822H205.689V145.979C206.788 145.837 207.802 145.355 208.599 144.583ZM205.01 144.708C204.016 144.708 203.084 144.334 202.38 143.654C201.677 142.974 201.291 142.071 201.291 141.109C201.291 140.147 201.677 139.246 202.38 138.564C203.083 137.882 204.016 137.51 205.01 137.51C206.004 137.51 206.935 137.884 207.639 138.564C208.342 139.244 208.728 140.147 208.728 141.109C208.728 142.071 208.342 142.972 207.639 143.654C206.935 144.334 206.004 144.708 205.01 144.708Z" fill="#53A2D3"/>
<rect width="13.3204" height="1.35094" transform="matrix(0.718576 -0.695449 0.718576 0.695449 188.433 159.137)" fill="#53A2D3"/>
<path d="M244.235 105.99L239.68 122.444L227.234 110.399L244.235 105.99ZM210.797 136.265L233.457 114.335L235.613 116.421L212.953 138.352L210.797 136.265Z" fill="#53A2D3"/>
<rect x="175.736" y="119.586" width="0.915292" height="34.5475" fill="#53A2D3"/>
<path d="M243.94 237.42L239.385 220.966L226.939 233.011L243.94 237.42ZM229.133 225.176L233.162 229.075L235.317 226.989L231.289 223.09L229.133 225.176Z" fill="#53A2D3"/>
<path d="M189.239 184.492L218.071 212.396" stroke="#53A2D3" stroke-width="3"/>
<path d="M108.45 237.421L113.005 220.967L125.451 233.012L108.45 237.421ZM164.217 185.535L119.228 229.076L117.072 226.989L162.061 183.449L164.217 185.535Z" fill="#53A2D3"/>
<rect x="175.736" y="188.246" width="0.915292" height="77.0675" fill="#53A2D3"/>
<rect width="0.127013" height="26.011" transform="matrix(0.718576 0.695449 -0.718576 0.695449 194.867 246.008)" stroke="#53A2D3" stroke-dasharray="8 8"/>
<rect width="0.127013" height="15.0962" transform="matrix(0.718576 0.695449 -0.718576 0.695449 218.679 224.559)" stroke="#53A2D3" stroke-dasharray="8 8"/>
<rect width="0.394228" height="15.8198" transform="matrix(0.718576 0.695449 -0.718576 0.695449 241.531 201.512)" stroke="#53A2D3" stroke-dasharray="8 8"/>
<rect width="0.394228" height="26.5128" transform="matrix(0.718576 0.695449 -0.718576 0.695449 272.52 171.41)" stroke="#53A2D3" stroke-dasharray="8 8"/>
<rect width="0.0761114" height="26.2116" transform="matrix(-0.718576 -0.695449 -0.718576 0.695449 195.01 245.871)" stroke="#53A2D3" stroke-dasharray="8 8"/>
<rect x="175.736" y="78.3984" width="0.915292" height="23.9175" fill="#53A2D3"/>
<rect x="121.736" y="171.41" width="36.6117" height="0.885834" fill="#53A2D3"/>
<rect x="193.583" y="171.41" width="79.6304" height="0.885834" fill="#53A2D3"/>
<rect width="86.7899" height="1.35638" transform="matrix(0.717462 -0.696598 0.717462 0.696598 107.513 93.7227)" fill="#53A2D3"/>
<rect width="86.616" height="1.35638" transform="matrix(0.717462 -0.696598 0.717462 0.696598 33.4922 165.59)" fill="#53A2D3"/>
<rect width="86.7676" height="1.35638" transform="matrix(-0.717462 -0.696598 -0.717462 0.696598 245.872 93.6992)" fill="#53A2D3"/>
<rect width="85.9161" height="1.54169" transform="matrix(-0.717462 -0.696598 -0.717462 0.696598 320.029 164.574)" fill="#53A2D3"/>
<rect width="86.0514" height="1.35102" transform="matrix(-0.718576 0.695449 -0.718576 -0.695449 319.205 178.238)" fill="#53A2D3"/>
<rect width="86.43" height="1.35102" transform="matrix(-0.718576 0.695449 -0.718576 -0.695449 245.351 249.711)" fill="#53A2D3"/>
<rect width="85.9325" height="1.35102" transform="matrix(0.718576 0.695449 0.718576 -0.695449 107.694 250.055)" fill="#53A2D3"/>
<rect width="86.1678" height="1.35102" transform="matrix(0.718576 0.695449 0.718576 -0.695449 33.4844 178.238)" fill="#53A2D3"/>
<path d="M32.1964 171.185C32.1964 178.521 25.9247 184.737 17.8482 184.737C9.77172 184.737 3.5 178.521 3.5 171.185C3.5 163.849 9.77172 157.633 17.8482 157.633C25.9247 157.633 32.1964 163.849 32.1964 171.185Z" stroke="#53A2D3" stroke-width="7"/>
<path d="M191.458 17.7167C191.458 25.5022 184.998 31.9333 176.881 31.9333C168.763 31.9333 162.304 25.5022 162.304 17.7167C162.304 9.93112 168.763 3.5 176.881 3.5C184.998 3.5 191.458 9.93112 191.458 17.7167Z" stroke="#53A2D3" stroke-width="7"/>
<rect x="80.5459" y="171.41" width="23.7976" height="0.885834" fill="#53A2D3"/>
<path d="M190.539 325.107C190.539 332.935 184.14 339.324 176.191 339.324C168.242 339.324 161.843 332.935 161.843 325.107C161.843 317.28 168.242 310.891 176.191 310.891C184.14 310.891 190.539 317.28 190.539 325.107Z" stroke="#53A2D3" stroke-width="7"/>
<path d="M349.346 172.513C349.346 179.891 343.134 186.066 335.227 186.066C327.32 186.066 321.107 179.891 321.107 172.513C321.107 165.136 327.32 158.961 335.227 158.961C343.134 158.961 349.346 165.136 349.346 172.513Z" stroke="#53A2D3" stroke-width="7"/>
<path d="M81.7867 63.3354C81.7867 72.4903 74.1042 79.995 64.5232 79.995C54.9423 79.995 47.2598 72.4903 47.2598 63.3354C47.2598 54.1804 54.9423 46.6758 64.5232 46.6758C74.1042 46.6758 81.7867 54.1804 81.7867 63.3354Z" stroke="#53A2D3" stroke-width="3"/>
<path d="M97.3476 84.5955C97.3476 90.3258 92.5337 95.0542 86.4912 95.0542C80.4487 95.0542 75.6348 90.3258 75.6348 84.5955C75.6348 78.8651 80.4487 74.1367 86.4912 74.1367C92.5337 74.1367 97.3476 78.8651 97.3476 84.5955Z" stroke="#53A2D3" stroke-width="3"/>
<path d="M109.254 99.2138C109.254 103.232 105.874 106.572 101.601 106.572C97.3279 106.572 93.9482 103.232 93.9482 99.2138C93.9482 95.1958 97.3279 91.8555 101.601 91.8555C105.874 91.8555 109.254 95.1958 109.254 99.2138Z" stroke="#53A2D3" stroke-width="3"/>
<path d="M109.254 244.042C109.254 248.06 105.874 251.4 101.601 251.4C97.3279 251.4 93.9482 248.06 93.9482 244.042C93.9482 240.024 97.3279 236.684 101.601 236.684C105.874 236.684 109.254 240.024 109.254 244.042Z" stroke="#53A2D3" stroke-width="3"/>
<path d="M258.905 244.042C258.905 248.06 255.526 251.4 251.253 251.4C246.979 251.4 243.6 248.06 243.6 244.042C243.6 240.024 246.979 236.684 251.253 236.684C255.526 236.684 258.905 240.024 258.905 244.042Z" stroke="#53A2D3" stroke-width="3"/>
<path d="M258.905 99.2138C258.905 103.232 255.526 106.572 251.253 106.572C246.979 106.572 243.6 103.232 243.6 99.2138C243.6 95.1958 246.979 91.8555 251.253 91.8555C255.526 91.8555 258.905 95.1958 258.905 99.2138Z" stroke="#53A2D3" stroke-width="3"/>
<path d="M58.4121 171.845C58.4121 177.284 53.8375 181.804 48.0557 181.804C42.2738 181.804 37.6992 177.284 37.6992 171.845C37.6992 166.407 42.2738 161.887 48.0557 161.887C53.8375 161.887 58.4121 166.407 58.4121 171.845Z" stroke="#53A2D3" stroke-width="4"/>
<path d="M77.6323 171.848C77.6323 175.819 74.2871 179.149 70.0217 179.149C65.7563 179.149 62.4111 175.819 62.4111 171.848C62.4111 167.877 65.7563 164.547 70.0217 164.547C74.2871 164.547 77.6323 167.877 77.6323 171.848Z" stroke="#53A2D3" stroke-width="4"/>
<path d="M121.103 171.848C121.103 175.819 117.758 179.149 113.492 179.149C109.227 179.149 105.882 175.819 105.882 171.848C105.882 167.877 109.227 164.547 113.492 164.547C117.758 164.547 121.103 167.877 121.103 171.848Z" stroke="#53A2D3" stroke-width="4"/>
<path d="M183.803 110.727C183.803 114.698 180.458 118.028 176.193 118.028C171.927 118.028 168.582 114.698 168.582 110.727C168.582 106.756 171.927 103.426 176.193 103.426C180.458 103.426 183.803 106.756 183.803 110.727Z" stroke="#53A2D3" stroke-width="4"/>
<path d="M186.546 47.3884C186.546 52.8273 181.971 57.3472 176.189 57.3472C170.408 57.3472 165.833 52.8273 165.833 47.3884C165.833 41.9495 170.408 37.4297 176.189 37.4297C181.971 37.4297 186.546 41.9495 186.546 47.3884Z" stroke="#53A2D3" stroke-width="4"/>
<path d="M186.546 295.869C186.546 301.308 181.971 305.828 176.189 305.828C170.408 305.828 165.833 301.308 165.833 295.869C165.833 290.43 170.408 285.91 176.189 285.91C181.971 285.91 186.546 290.43 186.546 295.869Z" stroke="#53A2D3" stroke-width="4"/>
<path d="M315.608 171.845C315.608 177.284 311.034 181.804 305.252 181.804C299.47 181.804 294.896 177.284 294.896 171.845C294.896 166.407 299.47 161.887 305.252 161.887C311.034 161.887 315.608 166.407 315.608 171.845Z" stroke="#53A2D3" stroke-width="4"/>
<path d="M97.3476 258.662C97.3476 264.392 92.5337 269.121 86.4912 269.121C80.4487 269.121 75.6348 264.392 75.6348 258.662C75.6348 252.932 80.4487 248.203 86.4912 248.203C92.5337 248.203 97.3476 252.932 97.3476 258.662Z" stroke="#53A2D3" stroke-width="3"/>
<path d="M277.207 84.5955C277.207 90.3258 272.393 95.0542 266.351 95.0542C260.308 95.0542 255.494 90.3258 255.494 84.5955C255.494 78.8651 260.308 74.1367 266.351 74.1367C272.393 74.1367 277.207 78.8651 277.207 84.5955Z" stroke="#53A2D3" stroke-width="3"/>
<path d="M277.207 258.662C277.207 264.392 272.393 269.121 266.351 269.121C260.308 269.121 255.494 264.392 255.494 258.662C255.494 252.932 260.308 248.203 266.351 248.203C272.393 248.203 277.207 252.932 277.207 258.662Z" stroke="#53A2D3" stroke-width="3"/>
<path d="M81.7867 279.925C81.7867 289.08 74.1042 296.585 64.5232 296.585C54.9423 296.585 47.2598 289.08 47.2598 279.925C47.2598 270.77 54.9423 263.266 64.5232 263.266C74.1042 263.266 81.7867 270.77 81.7867 279.925Z" stroke="#53A2D3" stroke-width="3"/>
<path d="M305.578 63.3354C305.578 72.4903 297.895 79.995 288.314 79.995C278.733 79.995 271.051 72.4903 271.051 63.3354C271.051 54.1804 278.733 46.6758 288.314 46.6758C297.895 46.6758 305.578 54.1804 305.578 63.3354Z" stroke="#53A2D3" stroke-width="3"/>
<path d="M305.578 279.925C305.578 289.08 297.895 296.585 288.314 296.585C278.733 296.585 271.051 289.08 271.051 279.925C271.051 270.77 278.733 263.266 288.314 263.266C297.895 263.266 305.578 270.77 305.578 279.925Z" stroke="#53A2D3" stroke-width="3"/>
<rect x="81.2715" y="68.207" width="86.4319" height="1.32875" fill="#53A2D3"/>
<rect x="184.791" y="68.207" width="86.6397" height="1.32875" fill="#53A2D3"/>
<rect x="81.2178" y="273.723" width="86.0838" height="1.32875" fill="#53A2D3"/>
<rect x="185.047" y="273.723" width="86.3116" height="1.32875" fill="#53A2D3"/>
<rect x="281.906" y="163.988" width="84.27" height="1.37294" transform="rotate(-90 281.906 163.988)" fill="#53A2D3"/>
<rect x="281.906" y="263.562" width="83.5929" height="1.37294" transform="rotate(-90 281.906 263.562)" fill="#53A2D3"/>
<rect x="69.5645" y="162.547" width="82.3825" height="1.37294" transform="rotate(-90 69.5645 162.547)" fill="#53A2D3"/>
<rect x="70.2363" y="263.285" width="82.3825" height="1.37294" transform="rotate(-90 70.2363 263.285)" fill="#53A2D3"/>
<path d="M272.217 171.63C272.217 222.783 229.361 264.307 176.425 264.307C123.489 264.307 80.6328 222.783 80.6328 171.63C80.6328 120.477 123.489 78.9531 176.425 78.9531C229.361 78.9531 272.217 120.477 272.217 171.63Z" stroke="#53A2D3" stroke-width="2"/>
<path d="M290.435 171.848C290.435 175.819 287.09 179.149 282.824 179.149C278.559 179.149 275.214 175.819 275.214 171.848C275.214 167.877 278.559 164.547 282.824 164.547C287.09 164.547 290.435 167.877 290.435 171.848Z" stroke="#53A2D3" stroke-width="4"/>
<path d="M183.803 68.6528C183.803 72.624 180.458 75.9541 176.193 75.9541C171.927 75.9541 168.582 72.624 168.582 68.6528C168.582 64.6816 171.927 61.3516 176.193 61.3516C180.458 61.3516 183.803 64.6816 183.803 68.6528Z" stroke="#53A2D3" stroke-width="4"/>
<path d="M183.803 274.61C183.803 278.581 180.458 281.911 176.193 281.911C171.927 281.911 168.582 278.581 168.582 274.61C168.582 270.639 171.927 267.309 176.193 267.309C180.458 267.309 183.803 270.639 183.803 274.61Z" stroke="#53A2D3" stroke-width="4"/>
<g clip-path="url(#clip0_313_15840)">
<path d="M202.563 214.083C202.132 213.657 201.621 213.319 201.058 213.088C200.495 212.857 199.892 212.738 199.283 212.738C198.674 212.738 198.071 212.857 197.508 213.088C196.945 213.319 196.434 213.657 196.003 214.083L195.11 214.967L194.216 214.083C193.346 213.222 192.166 212.739 190.936 212.739C189.706 212.739 188.526 213.222 187.656 214.083C186.787 214.944 186.298 216.111 186.298 217.328C186.298 218.546 186.787 219.713 187.656 220.574L188.55 221.458L195.11 227.949L201.669 221.458L202.563 220.574C202.994 220.148 203.335 219.642 203.568 219.085C203.802 218.528 203.922 217.931 203.922 217.328C203.922 216.726 203.802 216.129 203.568 215.572C203.335 215.015 202.994 214.509 202.563 214.083V214.083Z" fill="#F3374F" fill-opacity="0.69"/>
</g>
<g clip-path="url(#clip1_313_15840)">
<path d="M229.283 178.902V197.579" stroke="#1DBA08" stroke-width="4" stroke-linecap="round" stroke-linejoin="round"/>
<path d="M233.669 182.301H227.091C226.276 182.301 225.495 182.614 224.92 183.171C224.344 183.728 224.021 184.484 224.021 185.272C224.021 186.06 224.344 186.816 224.92 187.373C225.495 187.93 226.276 188.243 227.091 188.243H231.476C232.291 188.243 233.071 188.556 233.647 189.114C234.223 189.671 234.546 190.426 234.546 191.214C234.546 192.003 234.223 192.758 233.647 193.315C233.071 193.873 232.291 194.186 231.476 194.186H224.021" stroke="#1DBA08" stroke-width="4" stroke-linecap="round" stroke-linejoin="round"/>
</g>
<path d="M231.89 218.362C231.89 222.38 228.51 225.721 224.237 225.721C219.964 225.721 216.584 222.38 216.584 218.362C216.584 214.344 219.964 211.004 224.237 211.004C228.51 211.004 231.89 214.344 231.89 218.362Z" stroke="#53A2D3" stroke-width="3"/>
<path d="M208.568 240.507C208.568 244.525 205.188 247.865 200.915 247.865C196.641 247.865 193.262 244.525 193.262 240.507C193.262 236.489 196.641 233.148 200.915 233.148C205.188 233.148 208.568 236.489 208.568 240.507Z" stroke="#53A2D3" stroke-width="3"/>
<path d="M255.69 196.218C255.69 200.236 252.31 203.576 248.037 203.576C243.763 203.576 240.384 200.236 240.384 196.218C240.384 192.2 243.763 188.859 248.037 188.859C252.31 188.859 255.69 192.2 255.69 196.218Z" stroke="#53A2D3" stroke-width="3"/>
<path d="M193.978 171.595C193.978 181.532 185.725 189.588 175.546 189.588C165.366 189.588 157.113 181.532 157.113 171.595C157.113 161.657 165.366 153.602 175.546 153.602C185.725 153.602 193.978 161.657 193.978 171.595Z" fill="url(#paint0_radial_313_15840)"/>
<defs>
<radialGradient id="paint0_radial_313_15840" cx="0" cy="0" r="1" gradientUnits="userSpaceOnUse" gradientTransform="translate(175.546 171.242) rotate(79.1663) scale(32.6884 33.625)">
<stop offset="0.15625" stop-color="#FFA800"/>
<stop offset="0.453125" stop-color="#F95954"/>
<stop offset="0.96875" stop-color="#FBC93B" stop-opacity="0"/>
</radialGradient>
<clipPath id="clip0_313_15840">
<rect width="20.2348" height="20.0231" fill="white" transform="translate(185.912 212.969)"/>
</clipPath>
<clipPath id="clip1_313_15840">
<rect width="21.0517" height="20.3742" fill="white" transform="translate(218.758 178.055)"/>
</clipPath>
</defs>
</svg>
